<svg id="Layer_1" data-name="Layer 1" xmlns="http://www.w3.org/2000/svg" viewBox="0 0 924.99 154.6"><defs><style>.cls-1{fill:#2e6ff2;}</style></defs><path class="cls-1" d="M453.41,568.17h-33V420h93l-2.8,25h-57.2v33.4h46.4v25.4h-46.4Z" transform="translate(-420.41 -416.17)"/><path class="cls-1" d="M585.61,542.57l-1.8,25a43.27,43.27,0,0,1-8.5,2.2,63.07,63.07,0,0,1-10.1.8q-17.61,0-26-8.4t-8.4-25.4V416.17h31.8v115.2q0,8,2.7,11.4t8.9,3.4a18.55,18.55,0,0,0,6.4-1.1A22,22,0,0,0,585.61,542.57Z" transform="translate(-420.41 -416.17)"/><path class="cls-1" d="M689.61,538.77l3.2,25a60.72,60.72,0,0,1-16.3,5.1,112.41,112.41,0,0,1-20.7,1.9q-18.21,0-31.5-7a48.24,48.24,0,0,1-20.4-20.1q-7.11-13.09-7.1-31.1,0-16.61,6.3-28.8a46.18,46.18,0,0,1,17.8-19q11.49-6.79,27.3-6.8,21.39,0,33.4,12.6t12,35.8q0,2.6-.2,6.8t-.4,7h-63.4q2,13.8,10,20.6t20.8,6.8a55.26,55.26,0,0,0,16.2-2.5A39.58,39.58,0,0,0,689.61,538.77Zm-41-59.2a16.53,16.53,0,0,0-13.1,5.9q-5.1,5.89-6.3,16.9h36.4q0-11-4.4-16.9T648.61,479.57Z" transform="translate(-420.41 -416.17)"/><path class="cls-1" d="M778,568.17l-22-37.4-22.79,37.4H699.8l38.41-56.6-34.41-51h34.8l18.4,32,19.21-32H809.8l-35.2,51.6,38,56Z" transform="translate(-420.41 -416.17)"/><path class="cls-1" d="M979.6,568.17h-28l-28.2-100.8L895,568.17H867q-11.4-37-22.4-74.1T823.2,420h33q6.4,24.6,12.8,49t13.2,48.8l26.4-93.6h30.6l26.4,93.4q6.6-24.6,13.2-48.9t13-48.7h31.6q-10.39,37-21.4,74.1T979.6,568.17Z" transform="translate(-420.41 -416.17)"/><path class="cls-1" d="M1131.8,568.17h-31.4v-14a31.39,31.39,0,0,1-12.7,12.3,38.06,38.06,0,0,1-18.1,4.3q-15.6,0-25.3-10.6t-9.7-28.8v-70.8h31.8v67.8q0,8.6,3.9,13.3t11.3,4.7a19.06,19.06,0,0,0,10.8-3.2,21.38,21.38,0,0,0,7.4-8.4v-74.2h32Z" transform="translate(-420.41 -416.17)"/><path class="cls-1" d="M1187.8,568.17h-32V460.57h31.4v18.8q5-11,12.9-16.2A30.17,30.17,0,0,1,1217,458c1.2,0,2.47.07,3.8.2a24.53,24.53,0,0,1,3.6.6l-3.4,31.6q-3.4-2-9.4-2a24.05,24.05,0,0,0-14.6,4.7,26.08,26.08,0,0,0-9.2,12.3Z" transform="translate(-420.41 -416.17)"/><path class="cls-1" d="M1310.8,568.17l-22-37.4-22.8,37.4h-33.4l38.4-56.6-34.4-51h34.8l18.4,32,19.2-32h33.6l-35.2,51.6,38,56Z" transform="translate(-420.41 -416.17)"/></svg>